<?xml version="1.0" standalone="no"?><!DOCTYPE svg PUBLIC "-//W3C//DTD SVG 1.1//EN" "http://www.w3.org/Graphics/SVG/1.1/DTD/svg11.dtd"><svg xmlns:xlink="http://www.w3.org/1999/xlink" version="1.1" class="highcharts-root" style="font-family:lato, sans-serif;font-size:12px;" xmlns="http://www.w3.org/2000/svg" width="100%" viewBox="0 0 1360 600" height="600"><desc>Created with Highcharts 5.0.4</desc><defs><clipPath id="highcharts-6co0dxs-29"><rect x="0" y="0" width="1283" height="518" fill="none"></rect></clipPath></defs><rect fill="#ffffff" class="highcharts-background" x="0" y="0" width="1360" height="600" rx="0" ry="0"></rect><rect fill="none" class="highcharts-plot-background" x="67" y="47" width="1283" height="518"></rect><g class="highcharts-plot-lines-0"><path fill="none" stroke="#808080" stroke-width="1" d="M 67 565.5 L 1350 565.5"></path></g><g class="highcharts-grid highcharts-xaxis-grid "><path fill="none" class="highcharts-grid-line" d="M 226.5 47 L 226.5 565" opacity="1"></path><path fill="none" class="highcharts-grid-line" d="M 387.5 47 L 387.5 565" opacity="1"></path><path fill="none" class="highcharts-grid-line" d="M 547.5 47 L 547.5 565" opacity="1"></path><path fill="none" class="highcharts-grid-line" d="M 708.5 47 L 708.5 565" opacity="1"></path><path fill="none" class="highcharts-grid-line" d="M 868.5 47 L 868.5 565" opacity="1"></path><path fill="none" class="highcharts-grid-line" d="M 1028.5 47 L 1028.5 565" opacity="1"></path><path fill="none" class="highcharts-grid-line" d="M 1189.5 47 L 1189.5 565" opacity="1"></path><path fill="none" class="highcharts-grid-line" d="M 1349.5 47 L 1349.5 565" opacity="1"></path><path fill="none" class="highcharts-grid-line" d="M 66.5 47 L 66.5 565" opacity="1"></path></g><g class="highcharts-grid highcharts-yaxis-grid "><path fill="none" stroke="#e6e6e6" stroke-width="1" class="highcharts-grid-line" d="M 67 565.5 L 1350 565.5" opacity="1"></path><path fill="none" stroke="#e6e6e6" stroke-width="1" class="highcharts-grid-line" d="M 67 500.5 L 1350 500.5" opacity="1"></path><path fill="none" stroke="#e6e6e6" stroke-width="1" class="highcharts-grid-line" d="M 67 436.5 L 1350 436.5" opacity="1"></path><path fill="none" stroke="#e6e6e6" stroke-width="1" class="highcharts-grid-line" d="M 67 371.5 L 1350 371.5" opacity="1"></path><path fill="none" stroke="#e6e6e6" stroke-width="1" class="highcharts-grid-line" d="M 67 306.5 L 1350 306.5" opacity="1"></path><path fill="none" stroke="#e6e6e6" stroke-width="1" class="highcharts-grid-line" d="M 67 241.5 L 1350 241.5" opacity="1"></path><path fill="none" stroke="#e6e6e6" stroke-width="1" class="highcharts-grid-line" d="M 67 177.5 L 1350 177.5" opacity="1"></path><path fill="none" stroke="#e6e6e6" stroke-width="1" class="highcharts-grid-line" d="M 67 112.5 L 1350 112.5" opacity="1"></path><path fill="none" stroke="#e6e6e6" stroke-width="1" class="highcharts-grid-line" d="M 67 46.5 L 1350 46.5" opacity="1"></path></g><rect fill="none" class="highcharts-plot-border" x="67" y="47" width="1283" height="518"></rect><g class="highcharts-axis highcharts-xaxis "><path fill="none" class="highcharts-tick" stroke="#ccd6eb" stroke-width="1" d="M 226.5 565 L 226.5 575" opacity="1"></path><path fill="none" class="highcharts-tick" stroke="#ccd6eb" stroke-width="1" d="M 387.5 565 L 387.5 575" opacity="1"></path><path fill="none" class="highcharts-tick" stroke="#ccd6eb" stroke-width="1" d="M 547.5 565 L 547.5 575" opacity="1"></path><path fill="none" class="highcharts-tick" stroke="#ccd6eb" stroke-width="1" d="M 708.5 565 L 708.5 575" opacity="1"></path><path fill="none" class="highcharts-tick" stroke="#ccd6eb" stroke-width="1" d="M 868.5 565 L 868.5 575" opacity="1"></path><path fill="none" class="highcharts-tick" stroke="#ccd6eb" stroke-width="1" d="M 1028.5 565 L 1028.5 575" opacity="1"></path><path fill="none" class="highcharts-tick" stroke="#ccd6eb" stroke-width="1" d="M 1189.5 565 L 1189.5 575" opacity="1"></path><path fill="none" class="highcharts-tick" stroke="#ccd6eb" stroke-width="1" d="M 1350.5 565 L 1350.5 575" opacity="1"></path><path fill="none" class="highcharts-tick" stroke="#ccd6eb" stroke-width="1" d="M 66.5 565 L 66.5 575" opacity="1"></path><path fill="none" class="highcharts-axis-line" stroke="#297ab8" stroke-width="1" d="M 67 565.5 L 1350 565.5"></path></g><g class="highcharts-axis highcharts-yaxis "><text x="23.640625" text-anchor="middle" transform="translate(0,0) rotate(270 23.640625 306)" class="highcharts-axis-title" style="color:#666666;fill:#666666;" y="306">Buzz</text><path fill="none" class="highcharts-axis-line" stroke="#297ab8" stroke-width="1" d="M 66.5 47 L 66.5 565"></path></g><g class="highcharts-series-group"><g class="highcharts-series highcharts-series-0 highcharts-spline-series highcharts-color-undefined " transform="translate(67,47) scale(1 1)" width="518" height="1283" clip-path="url(#highcharts-6co0dxs-29)"><path fill="none" d="M 80.1875 506.345 C 80.1875 506.345 176.4125 505.82700000000006 240.5625 503.755 C 304.7125 501.683 336.7875 500.38800000000003 400.9375 495.985 C 465.0875 491.582 497.1625 481.74 561.3125 481.74 C 625.4625 481.74 657.5375 483.035 721.6875 483.035 C 785.8375 483.035 817.9125 476.04200000000003 882.0625 472.675 C 946.2125 469.308 978.2875 466.2 1042.4375 466.2 C 1106.5875 466.2 1202.8125 518 1202.8125 518" class="highcharts-graph" stroke="#a4c939" stroke-width="2" stroke-linejoin="round" stroke-linecap="round"></path></g><g class="highcharts-markers highcharts-series-0 highcharts-spline-series highcharts-color-undefined " transform="translate(67,47) scale(1 1)" width="518" height="1283" clip-path="none"><path fill="#a4c939" d="M 1202 514 C 1207.328 514 1207.328 522 1202 522 C 1196.672 522 1196.672 514 1202 514 Z" class="highcharts-point"></path><path fill="#a4c939" d="M 1042 462 C 1047.328 462 1047.328 470 1042 470 C 1036.672 470 1036.672 462 1042 462 Z" class="highcharts-point"></path><path fill="#a4c939" d="M 882 469 C 887.328 469 887.328 477 882 477 C 876.672 477 876.672 469 882 469 Z" class="highcharts-point"></path><path fill="#a4c939" d="M 721 479 C 726.328 479 726.328 487 721 487 C 715.672 487 715.672 479 721 479 Z" class="highcharts-point"></path><path fill="#a4c939" d="M 561 478 C 566.328 478 566.328 486 561 486 C 555.672 486 555.672 478 561 478 Z" class="highcharts-point"></path><path fill="#a4c939" d="M 400 492 C 405.328 492 405.328 500 400 500 C 394.672 500 394.672 492 400 492 Z" class="highcharts-point"></path><path fill="#a4c939" d="M 240 500 C 245.328 500 245.328 508 240 508 C 234.672 508 234.672 500 240 500 Z" class="highcharts-point"></path><path fill="#a4c939" d="M 80 502 C 85.328 502 85.328 510 80 510 C 74.672 510 74.672 502 80 502 Z" class="highcharts-point"></path></g><g class="highcharts-series highcharts-series-1 highcharts-spline-series highcharts-color-undefined " transform="translate(67,47) scale(1 1)" width="518" height="1283" clip-path="url(#highcharts-6co0dxs-29)"><path fill="none" d="M 80.1875 518 C 80.1875 518 176.4125 498.575 240.5625 498.575 C 304.7125 498.575 336.7875 518 400.9375 518 C 465.0875 518 497.1625 518 561.3125 518 C 625.4625 518 657.5375 516.9639999999999 721.6875 510.23 C 785.8375 503.49600000000004 817.9125 494.431 882.0625 484.33 C 946.2125 474.22900000000004 978.2875 459.725 1042.4375 459.725 C 1106.5875 459.725 1202.8125 518 1202.8125 518" class="highcharts-graph" stroke="#ff0000" stroke-width="2" stroke-linejoin="round" stroke-linecap="round"></path></g><g class="highcharts-markers highcharts-series-1 highcharts-spline-series highcharts-color-undefined " transform="translate(67,47) scale(1 1)" width="518" height="1283" clip-path="none"><path fill="#ff0000" d="M 1202 514 C 1207.328 514 1207.328 522 1202 522 C 1196.672 522 1196.672 514 1202 514 Z" class="highcharts-point"></path><path fill="#ff0000" d="M 1042 456 C 1047.328 456 1047.328 464 1042 464 C 1036.672 464 1036.672 456 1042 456 Z" class="highcharts-point"></path><path fill="#ff0000" d="M 882 480 C 887.328 480 887.328 488 882 488 C 876.672 488 876.672 480 882 480 Z" class="highcharts-point"></path><path fill="#ff0000" d="M 721 506 C 726.328 506 726.328 514 721 514 C 715.672 514 715.672 506 721 506 Z" class="highcharts-point"></path><path fill="#ff0000" d="M 561 514 C 566.328 514 566.328 522 561 522 C 555.672 522 555.672 514 561 514 Z" class="highcharts-point"></path><path fill="#ff0000" d="M 400 514 C 405.328 514 405.328 522 400 522 C 394.672 522 394.672 514 400 514 Z" class="highcharts-point"></path><path fill="#ff0000" d="M 240 495 C 245.328 495 245.328 503 240 503 C 234.672 503 234.672 495 240 495 Z" class="highcharts-point"></path><path fill="#ff0000" d="M 80 514 C 85.328 514 85.328 522 80 522 C 74.672 522 74.672 514 80 514 Z" class="highcharts-point"></path></g><g class="highcharts-series highcharts-series-2 highcharts-spline-series highcharts-color-undefined " transform="translate(67,47) scale(1 1)" width="518" height="1283" clip-path="url(#highcharts-6co0dxs-29)"><path fill="none" d="M 80.1875 137.27000000000004 C 80.1875 137.27000000000004 176.4125 69.93 240.5625 69.93 C 304.7125 69.93 336.7875 199.171 400.9375 265.475 C 465.0875 331.779 497.1625 369.075 561.3125 401.45 C 625.4625 433.825 657.5375 433.825 721.6875 433.825 C 785.8375 433.825 817.9125 308.98699999999997 882.0625 249.935 C 946.2125 190.883 978.2875 138.565 1042.4375 138.565 C 1106.5875 138.565 1202.8125 501.165 1202.8125 501.165" class="highcharts-graph" stroke="#a7a7a7" stroke-width="2" stroke-linejoin="round" stroke-linecap="round"></path></g><g class="highcharts-markers highcharts-series-2 highcharts-spline-series highcharts-color-undefined " transform="translate(67,47) scale(1 1)" width="518" height="1283" clip-path="none"><path fill="#a7a7a7" d="M 1202 497 C 1207.328 497 1207.328 505 1202 505 C 1196.672 505 1196.672 497 1202 497 Z" class="highcharts-point"></path><path fill="#a7a7a7" d="M 1042 135 C 1047.328 135 1047.328 143 1042 143 C 1036.672 143 1036.672 135 1042 135 Z" class="highcharts-point"></path><path fill="#a7a7a7" d="M 882 246 C 887.328 246 887.328 254 882 254 C 876.672 254 876.672 246 882 246 Z" class="highcharts-point"></path><path fill="#a7a7a7" d="M 721 430 C 726.328 430 726.328 438 721 438 C 715.672 438 715.672 430 721 430 Z" class="highcharts-point"></path><path fill="#a7a7a7" d="M 561 397 C 566.328 397 566.328 405 561 405 C 555.672 405 555.672 397 561 397 Z" class="highcharts-point"></path><path fill="#a7a7a7" d="M 400 261 C 405.328 261 405.328 269 400 269 C 394.672 269 394.672 261 400 261 Z" class="highcharts-point"></path><path fill="#a7a7a7" d="M 240 66 C 245.328 66 245.328 74 240 74 C 234.672 74 234.672 66 240 66 Z" class="highcharts-point"></path><path fill="#a7a7a7" d="M 80 133 C 85.328 133 85.328 141 80 141 C 74.672 141 74.672 133 80 133 Z" class="highcharts-point"></path></g></g><g class="highcharts-data-labels highcharts-series-0 highcharts-spline-series highcharts-color-undefined " transform="translate(67,47) scale(1 1)" opacity="1"><g class="highcharts-label highcharts-data-label highcharts-data-label-color-undefined " style="text-shadow:none;" transform="translate(1030,430)"><path fill="#a4c939" class="highcharts-label-box highcharts-data-label-box" d="M 3 0 L 23 0 C 26 0 26 0 26 3 L 26 23 C 26 26 26 26 23 26 L 18 26 12 32 6 26 3 26 C 0 26 0 26 0 23 L 0 3 C 0 0 0 0 3 0"></path><text x="5" style="font-size:14px;font-weight:bold;color:#ffffff;text-outline:;fill:#ffffff;" y="19">40</text></g><g class="highcharts-label highcharts-data-label highcharts-data-label-color-undefined " style="text-shadow:none;" transform="translate(1194,482)"><path fill="#a4c939" class="highcharts-label-box highcharts-data-label-box" d="M 3 0 L 15 0 C 18 0 18 0 18 3 L 18 23 C 18 26 18 26 15 26 L 3 26 C 0 26 0 26 0 23 L 0 3 C 0 0 0 0 3 0"></path><text x="5" style="font-size:14px;font-weight:bold;color:#ffffff;text-outline:;fill:#ffffff;" y="19">0</text></g></g><g class="highcharts-data-labels highcharts-series-1 highcharts-spline-series highcharts-color-undefined " transform="translate(67,47) scale(1 1)" opacity="1"><g class="highcharts-label highcharts-data-label highcharts-data-label-color-undefined " style="text-shadow:none;" transform="translate(71,482)"><path fill="#ff0000" class="highcharts-label-box highcharts-data-label-box" d="M 3 0 L 15 0 C 18 0 18 0 18 3 L 18 23 C 18 26 18 26 15 26 L 3 26 C 0 26 0 26 0 23 L 0 3 C 0 0 0 0 3 0"></path><text x="5" style="font-size:14px;font-weight:bold;color:#ffffff;text-outline:;fill:#ffffff;" y="19">0</text></g><g class="highcharts-label highcharts-data-label highcharts-data-label-color-undefined " style="text-shadow:none;" transform="translate(1030,424)" opacity="0" visibility="hidden"><path fill="#ff0000" class="highcharts-label-box highcharts-data-label-box" d="M 3 0 L 23 0 C 26 0 26 0 26 3 L 26 23 C 26 26 26 26 23 26 L 18 26 12 32 6 26 3 26 C 0 26 0 26 0 23 L 0 3 C 0 0 0 0 3 0"></path><text x="5" style="font-size:14px;font-weight:bold;color:#ffffff;text-outline:;fill:#ffffff;" y="19">45</text></g></g><g class="highcharts-data-labels highcharts-series-2 highcharts-spline-series highcharts-color-undefined " transform="translate(67,47) scale(1 1)" opacity="1"><g class="highcharts-label highcharts-data-label highcharts-data-label-color-undefined " style="text-shadow:none;" transform="translate(224,34)"><path fill="#a7a7a7" class="highcharts-label-box highcharts-data-label-box" d="M 3 0 L 30 0 C 33 0 33 0 33 3 L 33 23 C 33 26 33 26 30 26 L 23 26 17 32 11 26 3 26 C 0 26 0 26 0 23 L 0 3 C 0 0 0 0 3 0"></path><text x="5" style="font-size:14px;font-weight:bold;color:#ffffff;text-outline:;fill:#ffffff;" y="19">346</text></g><g class="highcharts-label highcharts-data-label highcharts-data-label-color-undefined " style="text-shadow:none;" transform="translate(1190,465)" opacity="0" visibility="hidden"><path fill="#a7a7a7" class="highcharts-label-box highcharts-data-label-box" d="M 3 0 L 23 0 C 26 0 26 0 26 3 L 26 23 C 26 26 26 26 23 26 L 19 26 13 32 7 26 3 26 C 0 26 0 26 0 23 L 0 3 C 0 0 0 0 3 0"></path><text x="5" style="font-size:14px;font-weight:bold;color:#ffffff;text-outline:;fill:#ffffff;" y="19">13</text></g></g><g class="highcharts-legend" transform="translate(556,10)"><rect fill="none" class="highcharts-legend-box" rx="0" ry="0" x="0" y="0" width="247" height="25" visibility="visible"></rect><g><g><g class="highcharts-legend-item highcharts-spline-series highcharts-color-undefined highcharts-series-2" transform="translate(8,3)"><path fill="none" d="M 0 11 L 16 11" class="highcharts-graph" stroke="#a7a7a7" stroke-width="2"></path><path fill="#a7a7a7" d="M 8 7 C 13.328 7 13.328 15 8 15 C 2.6719999999999997 15 2.6719999999999997 7 8 7 Z" class="highcharts-point"></path><text x="21" style="color:#333333;font-size:12px;font-weight:normal;cursor:pointer;fill:#333333;" text-anchor="start" y="15">Neutral</text></g><g class="highcharts-legend-item highcharts-spline-series highcharts-color-undefined highcharts-series-1" transform="translate(87.6875,3)"><path fill="none" d="M 0 11 L 16 11" class="highcharts-graph" stroke="#ff0000" stroke-width="2"></path><path fill="#ff0000" d="M 8 7 C 13.328 7 13.328 15 8 15 C 2.6719999999999997 15 2.6719999999999997 7 8 7 Z" class="highcharts-point"></path><text x="21" y="15" style="color:#333333;font-size:12px;font-weight:normal;cursor:pointer;fill:#333333;" text-anchor="start">Negative</text></g><g class="highcharts-legend-item highcharts-spline-series highcharts-color-undefined highcharts-series-0" transform="translate(176.0625,3)"><path fill="none" d="M 0 11 L 16 11" class="highcharts-graph" stroke="#a4c939" stroke-width="2"></path><path fill="#a4c939" d="M 8 7 C 13.328 7 13.328 15 8 15 C 2.6719999999999997 15 2.6719999999999997 7 8 7 Z" class="highcharts-point"></path><text x="21" y="15" style="color:#333333;font-size:12px;font-weight:normal;cursor:pointer;fill:#333333;" text-anchor="start">Positive</text></g></g></g></g><g class="highcharts-axis-labels highcharts-xaxis-labels "><text x="147.1875" style="color:#666666;cursor:default;font-size:11px;fill:#666666;" text-anchor="middle" transform="translate(0,0)" y="584" opacity="1">26/08</text><text x="307.5625" style="color:#666666;cursor:default;font-size:11px;fill:#666666;" text-anchor="middle" transform="translate(0,0)" y="584" opacity="1">27/08</text><text x="467.9375" style="color:#666666;cursor:default;font-size:11px;fill:#666666;" text-anchor="middle" transform="translate(0,0)" y="584" opacity="1">28/08</text><text x="628.3125" style="color:#666666;cursor:default;font-size:11px;fill:#666666;" text-anchor="middle" transform="translate(0,0)" y="584" opacity="1">29/08</text><text x="788.6875" style="color:#666666;cursor:default;font-size:11px;fill:#666666;" text-anchor="middle" transform="translate(0,0)" y="584" opacity="1">30/08</text><text x="949.0625" style="color:#666666;cursor:default;font-size:11px;fill:#666666;" text-anchor="middle" transform="translate(0,0)" y="584" opacity="1">31/08</text><text x="1109.4375" style="color:#666666;cursor:default;font-size:11px;fill:#666666;" text-anchor="middle" transform="translate(0,0)" y="584" opacity="1">01/09</text><text x="1269.8125" style="color:#666666;cursor:default;font-size:11px;fill:#666666;" text-anchor="middle" transform="translate(0,0)" y="584" opacity="1">02/09</text></g><g class="highcharts-axis-labels highcharts-yaxis-labels "><text x="52" style="color:#666666;cursor:default;font-size:11px;fill:#666666;width:439px;text-overflow:clip;" text-anchor="end" transform="translate(0,0)" y="570" opacity="1"><tspan>0</tspan></text><text x="52" style="color:#666666;cursor:default;font-size:11px;fill:#666666;width:439px;text-overflow:clip;" text-anchor="end" transform="translate(0,0)" y="505" opacity="1"><tspan>50</tspan></text><text x="52" style="color:#666666;cursor:default;font-size:11px;fill:#666666;width:439px;text-overflow:clip;" text-anchor="end" transform="translate(0,0)" y="440" opacity="1"><tspan>100</tspan></text><text x="52" style="color:#666666;cursor:default;font-size:11px;fill:#666666;width:439px;text-overflow:clip;" text-anchor="end" transform="translate(0,0)" y="376" opacity="1"><tspan>150</tspan></text><text x="52" style="color:#666666;cursor:default;font-size:11px;fill:#666666;width:439px;text-overflow:clip;" text-anchor="end" transform="translate(0,0)" y="311" opacity="1"><tspan>200</tspan></text><text x="52" style="color:#666666;cursor:default;font-size:11px;fill:#666666;width:439px;text-overflow:clip;" text-anchor="end" transform="translate(0,0)" y="246" opacity="1"><tspan>250</tspan></text><text x="52" style="color:#666666;cursor:default;font-size:11px;fill:#666666;width:439px;text-overflow:clip;" text-anchor="end" transform="translate(0,0)" y="181" opacity="1"><tspan>300</tspan></text><text x="52" style="color:#666666;cursor:default;font-size:11px;fill:#666666;width:439px;text-overflow:clip;" text-anchor="end" transform="translate(0,0)" y="117" opacity="1"><tspan>350</tspan></text><text x="52" style="color:#666666;cursor:default;font-size:11px;fill:#666666;width:439px;text-overflow:clip;" text-anchor="end" transform="translate(0,0)" y="52" opacity="1"><tspan>400</tspan></text></g></svg>